<svg xmlns="http://www.w3.org/2000/svg" viewBox="0 0 65.93 65.93"><defs><style>.cls-1{fill:#fff;}</style></defs><g id="Layer_2" data-name="Layer 2"><g id="Layer_1-2" data-name="Layer 1"><path class="cls-1" d="M65.93,12.36V53.57A12.37,12.37,0,0,1,53.57,65.93H45.5V40.39H54l1.28-10H45.5V24.08c0-2.88.77-4.81,4.93-4.81l5.24,0V10.34A68.81,68.81,0,0,0,48,10c-7.6,0-12.84,4.63-12.84,13.13v7.34H26.61v10h8.58V65.93H12.36A12.37,12.37,0,0,1,0,53.57V12.36A12.37,12.37,0,0,1,12.36,0H53.57A12.37,12.37,0,0,1,65.93,12.36Z"/></g></g></svg>