<svg xmlns="http://www.w3.org/2000/svg" viewBox="0 0 66.05 66.05"><defs><style>.cls-1{fill:#fff;}</style></defs><g id="Layer_2" data-name="Layer 2"><g id="Layer_1-2" data-name="Layer 1"><path class="cls-1" d="M65.83,46.66c-.25,5.29-1.46,10-5.33,13.84S52,65.58,46.66,65.83c-4.56.26-9.08.22-13.63.22s-9.08,0-13.63-.22c-5.29-.25-10-1.46-13.85-5.33S.48,52,.22,46.66C0,42.1,0,37.58,0,33S0,24,.22,19.4c.26-5.29,1.46-10,5.33-13.85S14.11.48,19.4.22C24,0,28.47,0,33,0S42.1,0,46.66.22c5.29.26,10,1.46,13.84,5.33s5.08,8.56,5.33,13.85c.26,4.55.22,9.07.22,13.63S66.09,42.1,65.83,46.66ZM13.55,7.27A10.51,10.51,0,0,0,9.76,9.76a10.51,10.51,0,0,0-2.49,3.79C5.55,17.89,5.94,28.21,5.94,33S5.55,48.16,7.27,52.5a10.51,10.51,0,0,0,2.49,3.79,10.51,10.51,0,0,0,3.79,2.49C17.89,60.5,28.21,60.11,33,60.11s15.13.39,19.47-1.33a11.19,11.19,0,0,0,6.28-6.28C60.5,48.16,60.11,37.84,60.11,33s.39-15.14-1.33-19.48a10.51,10.51,0,0,0-2.49-3.79A10.51,10.51,0,0,0,52.5,7.27C48.16,5.55,37.84,5.94,33,5.94S17.89,5.55,13.55,7.27ZM33,50A16.95,16.95,0,1,1,50,33,16.92,16.92,0,0,1,33,50ZM33,22A11,11,0,1,0,44,33,11,11,0,0,0,33,22Zm17.62-2.67a4,4,0,1,1,4-4A3.94,3.94,0,0,1,50.65,19.35Z"/></g></g></svg>