<svg xmlns="http://www.w3.org/2000/svg" viewBox="0 0 81.33 66.05"><defs><style>.cls-1{fill:#fff;}</style></defs><g id="Layer_2" data-name="Layer 2"><g id="Layer_1-2" data-name="Layer 1"><path class="cls-1" d="M73,16.46c0,.72,0,1.45,0,2.17,0,22-16.77,47.42-47.43,47.42A47.07,47.07,0,0,1,0,58.57a35.47,35.47,0,0,0,4,.21,33.39,33.39,0,0,0,20.7-7.13A16.7,16.7,0,0,1,9.13,40.1a21.83,21.83,0,0,0,3.15.25,17.72,17.72,0,0,0,4.39-.56A16.68,16.68,0,0,1,3.3,23.43v-.21a16.87,16.87,0,0,0,7.54,2.12A16.7,16.7,0,0,1,5.68,3,47.37,47.37,0,0,0,40,20.49a19.42,19.42,0,0,1-.41-3.82A16.69,16.69,0,0,1,68.48,5.26a32.81,32.81,0,0,0,10.58-4,16.6,16.6,0,0,1-7.33,9.18,33.49,33.49,0,0,0,9.6-2.58A35.65,35.65,0,0,1,73,16.46Z"/></g></g></svg>