<svg xmlns="http://www.w3.org/2000/svg" viewBox="0 0 93.02 65.41"><defs><style>.cls-1{fill:#fff;}</style></defs><g id="Layer_2" data-name="Layer 2"><g id="Layer_1-2" data-name="Layer 1"><path class="cls-1" d="M79.06.93c1.82.21,5.81.21,9.34,4,0,0,2.86,2.8,3.69,9.24A124.3,124.3,0,0,1,93,29.17v7.06a124.42,124.42,0,0,1-.93,15.06c-.83,6.38-3.69,9.24-3.69,9.24-3.53,3.68-7.52,3.68-9.34,3.89,0,0-13,1-32.55,1-24.19-.21-31.61-.94-31.61-.94-2.08-.36-6.75-.26-10.28-3.94,0,0-2.85-2.86-3.68-9.24A125.63,125.63,0,0,1,0,36.23V29.17A125.51,125.51,0,0,1,.94,14.12c.83-6.44,3.68-9.24,3.68-9.24C8.15,1.14,12.15,1.14,14,.93c0,0,13-.93,32.55-.93S79.06.93,79.06.93ZM62,31.77,36.91,18.64V44.75Z"/></g></g></svg>